<?xml version="1.0" encoding="UTF-8" standalone="no"?>
<!-- Created with Inkscape (http://www.inkscape.org/) -->

<svg
   xmlns:dc="http://purl.org/dc/elements/1.1/"
   xmlns:cc="http://creativecommons.org/ns#"
   xmlns:rdf="http://www.w3.org/1999/02/22-rdf-syntax-ns#"
   xmlns:svg="http://www.w3.org/2000/svg"
   xmlns="http://www.w3.org/2000/svg"
   xmlns:sodipodi="http://sodipodi.sourceforge.net/DTD/sodipodi-0.dtd"
   xmlns:inkscape="http://www.inkscape.org/namespaces/inkscape"
   width="56.58773mm"
   height="25.26779mm"
   viewBox="0 0 56.58773 25.26779"
   version="1.1"
   id="svg2443"
   inkscape:export-filename="C:\Users\camas\Documents\BoosSite\Images\mission.png"
   inkscape:export-xdpi="25.585051"
   inkscape:export-ydpi="25.585051"
   inkscape:version="0.92.2 (5c3e80d, 2017-08-06)"
   sodipodi:docname="drawing.svg">
  <sodipodi:namedview
     id="base"
     pagecolor="#ffffff"
     bordercolor="#666666"
     borderopacity="1.0"
     inkscape:pageopacity="0.0"
     inkscape:pageshadow="2"
     inkscape:zoom="2.56"
     inkscape:cx="97.323397"
     inkscape:cy="32.871879"
     inkscape:document-units="mm"
     inkscape:current-layer="layer1"
     showgrid="false"
     inkscape:window-width="1920"
     inkscape:window-height="986"
     inkscape:window-x="-11"
     inkscape:window-y="-11"
     inkscape:window-maximized="1">
    <sodipodi:guide
       id="guide6920"
       position="28.293899,8.9891946e-007"
       orientation="25.2678,0"
       inkscape:locked="false" />
    <sodipodi:guide
       id="guide6922"
       position="-3.302897e-009,8.4226006"
       orientation="0,56.5877"
       inkscape:locked="false" />
    <sodipodi:guide
       id="guide6924"
       position="-3.302897e-009,16.8452"
       orientation="0,56.5877"
       inkscape:locked="false" />
  </sodipodi:namedview>
  <defs
     id="defs2437" />
  <metadata
     id="metadata2440">
    <rdf:RDF>
      <cc:Work
         rdf:about="">
        <dc:format>image/svg+xml</dc:format>
        <dc:type
           rdf:resource="http://purl.org/dc/dcmitype/StillImage" />
        <dc:title></dc:title>
      </cc:Work>
    </rdf:RDF>
  </metadata>
  <g
     transform="translate(0.68449595,1.4881715)"
     id="layer1"
     inkscape:groupmode="layer"
     inkscape:label="Layer 1">
    <path
       d="M 55.895807,12.842587 A 28.293684,10.694337 0 0 1 28.324996,23.77613 28.293684,10.694337 0 0 1 -0.67326786,13.383537 28.293684,10.694337 0 0 1 26.746469,2.3958519 28.293684,10.694337 0 0 1 55.887583,12.731201"
       sodipodi:open="true"
       sodipodi:end="6.2500764"
       sodipodi:start="6.260496"
       sodipodi:ry="10.694337"
       sodipodi:rx="28.293684"
       sodipodi:cy="13.085214"
       sodipodi:cx="27.609406"
       sodipodi:type="arc"
       id="path6822"
       style="opacity:1;fill:#ff5555;fill-opacity:1;stroke:#be69b7;stroke-width:0;stroke-miterlimit:4;stroke-dasharray:none;stroke-opacity:1" />
    <path
       style="opacity:1;fill:#ffffff;fill-opacity:1;stroke:#be69b7;stroke-width:0;stroke-miterlimit:4;stroke-dasharray:none;stroke-opacity:1"
       id="path6824"
       sodipodi:type="arc"
       sodipodi:cx="27.609398"
       sodipodi:cy="13.085206"
       sodipodi:rx="23.149376"
       sodipodi:ry="8.7499142"
       sodipodi:start="6.260496"
       sodipodi:end="6.2500764"
       sodipodi:open="true"
       d="M 50.752815,12.886694 A 23.149376,8.7499142 0 0 1 28.194881,21.832321 23.149376,8.7499142 0 0 1 4.4690307,13.329289 23.149376,8.7499142 0 0 1 26.903359,4.3393624 23.149376,8.7499142 0 0 1 50.746087,12.795559" />
    <path
       d="M 45.609824,12.930807 A 18.005068,6.8054905 0 0 1 28.064766,19.88852 18.005068,6.8054905 0 0 1 9.6113292,13.275049 18.005068,6.8054905 0 0 1 27.060249,6.2828815 18.005068,6.8054905 0 0 1 45.60459,12.859925"
       sodipodi:open="true"
       sodipodi:end="6.2500764"
       sodipodi:start="6.260496"
       sodipodi:ry="6.8054905"
       sodipodi:rx="18.005068"
       sodipodi:cy="13.085206"
       sodipodi:cx="27.60939"
       sodipodi:type="arc"
       id="path6826"
       style="opacity:1;fill:#ff5555;fill-opacity:1;stroke:#be69b7;stroke-width:0;stroke-miterlimit:4;stroke-dasharray:none;stroke-opacity:1" />
    <path
       style="opacity:1;fill:#ffffff;fill-opacity:1;stroke:#be69b7;stroke-width:0;stroke-miterlimit:4;stroke-dasharray:none;stroke-opacity:1"
       id="path6828"
       sodipodi:type="arc"
       sodipodi:cx="27.60939"
       sodipodi:cy="13.085202"
       sodipodi:rx="13.124915"
       sodipodi:ry="4.9609075"
       sodipodi:start="6.260496"
       sodipodi:end="6.2500764"
       sodipodi:open="true"
       d="M 40.730927,12.972652 A 13.124915,4.9609075 0 0 1 27.941339,18.044523 13.124915,4.9609075 0 0 1 14.489583,13.223589 13.124915,4.9609075 0 0 1 27.20909,8.1266026 13.124915,4.9609075 0 0 1 40.727112,12.920982" />
    <path
       d="m 35.547134,13.017116 a 7.9397879,3.0010521 0 0 1 -7.736935,3.068178 7.9397879,3.0010521 0 0 1 -8.137507,-2.916376 7.9397879,3.0010521 0 0 1 7.69454,-3.083372 7.9397879,3.0010521 0 0 1 8.177595,2.900313"
       sodipodi:open="true"
       sodipodi:end="6.2500764"
       sodipodi:start="6.260496"
       sodipodi:ry="3.0010521"
       sodipodi:rx="7.9397879"
       sodipodi:cy="13.085202"
       sodipodi:cx="27.60939"
       sodipodi:type="arc"
       id="path6830"
       style="opacity:1;fill:#ff5555;fill-opacity:1;stroke:#be69b7;stroke-width:0;stroke-miterlimit:4;stroke-dasharray:none;stroke-opacity:1" />
    <path
       style="opacity:1;fill:#000000;fill-opacity:1;stroke:#be69b7;stroke-width:0;stroke-miterlimit:4;stroke-dasharray:none;stroke-opacity:1"
       inkscape:transform-center-x="-0.5372609"
       inkscape:transform-center-y="-0.5372604"
       d="m 32.941737,-1.488172 2.89446,5.804867 5.80486,2.894448 -14.17508,5.475762 z"
       id="path6832"
       inkscape:connector-curvature="0"
       sodipodi:nodetypes="ccccc" />
  </g>
</svg>
